<?xml version="1.0" encoding="utf-8"?>
<!-- Generator: Adobe Illustrator 27.5.0, SVG Export Plug-In . SVG Version: 6.00 Build 0)  -->
<svg version="1.1" id="Layer_1" xmlns="http://www.w3.org/2000/svg" xmlns:xlink="http://www.w3.org/1999/xlink" x="0px" y="0px"
	 viewBox="0 0 7000 4000" style="enable-background:new 0 0 7000 4000;" xml:space="preserve">
<g>
	<g>
		<defs>
			<rect id="SVGID_1_" width="6999.998" height="4000"/>
		</defs>
		<clipPath id="SVGID_00000062878831700744457900000009628207573083553715_">
			<use xlink:href="#SVGID_1_"  style="overflow:visible;"/>
		</clipPath>
		<g style="clip-path:url(#SVGID_00000062878831700744457900000009628207573083553715_);">
			<defs>
				<rect id="SVGID_00000026143804154016277810000017229128389826533540_" width="6999.998" height="4000"/>
			</defs>
			<clipPath id="SVGID_00000145021128224094052590000000382212815859140258_">
				<use xlink:href="#SVGID_00000026143804154016277810000017229128389826533540_"  style="overflow:visible;"/>
			</clipPath>
			
				<rect style="clip-path:url(#SVGID_00000145021128224094052590000000382212815859140258_);fill-rule:evenodd;clip-rule:evenodd;fill:#009A3D;" width="6999.998" height="4000"/>
			
				<path style="opacity:0.05;clip-path:url(#SVGID_00000145021128224094052590000000382212815859140258_);fill-rule:evenodd;clip-rule:evenodd;fill:#FFFF00;" d="
				M6999.998,0H0v4000h6432.162c-414.797-332.883-618.965-665.793-618.965-976.52c0-637.742,434.762-1172.926,1186.801-1643.875V0z"
				/>
			
				<path style="opacity:0.05;clip-path:url(#SVGID_00000145021128224094052590000000382212815859140258_);fill-rule:evenodd;clip-rule:evenodd;fill:#FFFF00;" d="
				M6999.998,0H0v4000h6999.998v-58.379c-382.555-313.355-571.711-625.59-571.711-918.141
				c0-426.668,202.969-807.387,571.711-1153.738V0z"/>
			
				<path style="opacity:0.05;clip-path:url(#SVGID_00000145021128224094052590000000382212815859140258_);fill-rule:evenodd;clip-rule:evenodd;fill:#FFFF00;" d="
				M6999.998,0H0v4000h3363.492c-457.096-332.879-682.088-665.785-682.088-976.52c0-1214.34,1736.381-2057.008,4318.594-2791.879V0z
				"/>
			
				<path style="opacity:0.05;clip-path:url(#SVGID_00000145021128224094052590000000382212815859140258_);fill-rule:evenodd;clip-rule:evenodd;fill:#FFFF00;" d="
				M0,4000h3917.314c-829.904-462.641-1235.91-939.688-1235.91-1374.992C2681.404,1513.355,4019.83,700.41,6094.125,0H0V4000z"/>
			
				<path style="opacity:0.05;clip-path:url(#SVGID_00000145021128224094052590000000382212815859140258_);fill-rule:evenodd;clip-rule:evenodd;fill:#FFFF00;" d="
				M6999.998,0H0v4000h2834.508c-102.246-169.93-153.104-336.996-153.104-498.57c0-1329.313,1736.381-2251.773,4318.594-3056.223V0z
				"/>
			
				<path style="opacity:0.2;clip-path:url(#SVGID_00000145021128224094052590000000382212815859140258_);fill-rule:evenodd;clip-rule:evenodd;fill:#009A3D;" d="
				M6999.998,0H0v4000h6163.32c-1423.48-695.082-1936.105-1440.176-1670.133-2058.984
				C4821.57,1176.992,5716.121,590.465,6999.998,104.898V0z"/>
			
				<path style="opacity:0.2;clip-path:url(#SVGID_00000145021128224094052590000000382212815859140258_);fill-rule:evenodd;clip-rule:evenodd;fill:#009A3D;" d="
				M6999.998,0H0v4000h6808.121c-1441.695-688.867-1967.65-1421.902-1705.822-2031.055
				c269.002-625.863,935.502-1131.832,1897.699-1560.16V0z"/>
			
				<path style="opacity:0.2;clip-path:url(#SVGID_00000145021128224094052590000000382212815859140258_);fill-rule:evenodd;clip-rule:evenodd;fill:#009A3D;" d="
				M0,4000h3627.635c-1827.994-739.875-2518.35-1543.891-2235.832-2201.188C1713.525,1050.301,2640.41,475.004,3986.295,0H0V4000z"
				/>
			
				<path style="opacity:0.2;clip-path:url(#SVGID_00000145021128224094052590000000382212815859140258_);fill-rule:evenodd;clip-rule:evenodd;fill:#009A3D;" d="
				M0,4000h4557.672C2143.021,3154.719,1227.039,2182.137,1561.4,1404.215C1796.801,856.531,2329.283,397.242,3094.127,0H0V4000z"/>
			
				<path style="opacity:0.2;clip-path:url(#SVGID_00000145021128224094052590000000382212815859140258_);fill-rule:evenodd;clip-rule:evenodd;fill:#009A3D;" d="
				M0,4000h2116.07c-865.432-599.309-1152.5-1204.867-927.709-1727.875C1609.203,1293,2885.799,580.449,4705.23,0H0V4000z"/>
			
				<path style="opacity:0.1;clip-path:url(#SVGID_00000145021128224094052590000000382212815859140258_);fill-rule:evenodd;clip-rule:evenodd;fill:#FFFF00;" d="
				M0,4000h6999.998v-57.957C3460.688,2828.066,2619.072,1453.563,3561.75,499.609C3737.768,321.477,3941.264,155.469,4169.447,0H0
				V4000z"/>
			
				<path style="opacity:0.1;clip-path:url(#SVGID_00000145021128224094052590000000382212815859140258_);fill-rule:evenodd;clip-rule:evenodd;fill:#FFFF00;" d="
				M0,4000h6999.998v-251.074C3992.406,2675.242,3280.176,1435.656,4146.816,558.66C4345.52,357.574,4580.932,172.043,4849.408,0H0
				V4000z"/>
			
				<path style="opacity:0.1;clip-path:url(#SVGID_00000145021128224094052590000000382212815859140258_);fill-rule:evenodd;clip-rule:evenodd;fill:#FFFF00;" d="
				M0,4000h5753.467C882.326,2792.668-441.506,1235.461,582.75,198.961C650.115,130.797,722.488,64.637,798.699,0H0V4000z"/>
			
				<path style="opacity:0.1;clip-path:url(#SVGID_00000145021128224094052590000000382212815859140258_);fill-rule:evenodd;clip-rule:evenodd;fill:#FFFF00;" d="
				M0,4000h6999.998v-16.363C1626.449,2789.129-11.606,1148.348,806.076,0H0V4000z"/>
			
				<path style="opacity:0.1;clip-path:url(#SVGID_00000145021128224094052590000000382212815859140258_);fill-rule:evenodd;clip-rule:evenodd;fill:#FFFF00;" d="
				M0,805.066c39.482-50.672,83.088-100.473,131.242-149.207C365.674,418.629,644.461,200.855,963.477,0H0V805.066z M0,4000
				h2718.705C1276.365,3431.391,399.611,2823.488,0,2241.98V4000z"/>
			
				<path style="opacity:0.05;clip-path:url(#SVGID_00000145021128224094052590000000382212815859140258_);fill-rule:evenodd;clip-rule:evenodd;fill:#009A3D;" d="
				M0,4000h6999.998V0H836.676c1423.482,695.086,1936.107,1440.18,1670.135,2058.984
				C2178.428,2823.012,1283.875,3409.539,0,3895.102V4000z"/>
			
				<path style="opacity:0.05;clip-path:url(#SVGID_00000145021128224094052590000000382212815859140258_);fill-rule:evenodd;clip-rule:evenodd;fill:#009A3D;" d="
				M0,4000h6999.998V0H191.875c1441.695,688.867,1967.65,1421.906,1705.824,2031.055C1628.697,2656.918,962.197,3162.887,0,3591.215
				V4000z"/>
			
				<path style="opacity:0.05;clip-path:url(#SVGID_00000145021128224094052590000000382212815859140258_);fill-rule:evenodd;clip-rule:evenodd;fill:#009A3D;" d="
				M6999.998,0H3372.365c1827.992,739.879,2518.348,1543.895,2235.828,2201.188C5286.475,2949.699,4359.588,3524.996,3013.703,4000
				h3986.295V0z"/>
			
				<path style="opacity:0.05;clip-path:url(#SVGID_00000145021128224094052590000000382212815859140258_);fill-rule:evenodd;clip-rule:evenodd;fill:#009A3D;" d="
				M6999.998,0H2442.326c2414.65,845.285,3330.633,1817.863,2996.271,2595.789c-235.4,547.68-767.883,1006.977-1532.727,1404.211
				h3094.127V0z"/>
			
				<path style="opacity:0.05;clip-path:url(#SVGID_00000145021128224094052590000000382212815859140258_);fill-rule:evenodd;clip-rule:evenodd;fill:#009A3D;" d="
				M6999.998,0H4883.926c865.432,599.309,1152.504,1204.867,927.711,1727.879C5390.793,2707.008,4114.199,3419.551,2294.766,4000
				h4705.232V0z"/>
			
				<path style="opacity:0.05;clip-path:url(#SVGID_00000145021128224094052590000000382212815859140258_);fill-rule:evenodd;clip-rule:evenodd;fill:#FFFF00;" d="
				M6999.998,0H0v57.961c3539.309,1113.977,4380.926,2488.48,3438.248,3442.43c-176.02,178.133-379.516,344.141-607.699,499.609
				h4169.449V0z"/>
			
				<path style="opacity:0.05;clip-path:url(#SVGID_00000145021128224094052590000000382212815859140258_);fill-rule:evenodd;clip-rule:evenodd;fill:#FFFF00;" d="
				M6999.998,0H0v251.074c3007.592,1073.688,3719.824,2313.27,2853.182,3190.27c-198.705,201.086-434.117,386.617-702.594,558.656
				h4849.41V0z"/>
			
				<path style="opacity:0.05;clip-path:url(#SVGID_00000145021128224094052590000000382212815859140258_);fill-rule:evenodd;clip-rule:evenodd;fill:#FFFF00;" d="
				M6999.998,0H1246.533C6117.67,1207.332,7441.506,2764.539,6417.246,3801.043c-67.365,68.164-139.736,134.32-215.947,198.957
				h798.699V0z"/>
			
				<path style="opacity:0.05;clip-path:url(#SVGID_00000145021128224094052590000000382212815859140258_);fill-rule:evenodd;clip-rule:evenodd;fill:#FFFF00;" d="
				M6999.998,0H0v16.367C5373.549,1210.875,7011.604,2851.652,6193.922,4000h806.076V0z"/>
			
				<path style="opacity:0.05;clip-path:url(#SVGID_00000145021128224094052590000000382212815859140258_);fill-rule:evenodd;clip-rule:evenodd;fill:#FFFF00;" d="
				M6999.998,3194.938c-39.484,50.668-83.088,100.469-131.242,149.207c-234.432,237.23-513.219,455.004-832.236,655.855h963.479
				V3194.938z M6999.998,0H4281.291c1442.342,568.613,2319.094,1176.516,2718.707,1758.023V0z"/>
		</g>
	</g>
</g>
</svg>
